# xmcd CD database file
#
# Track frame offsets:
#	183
#	8433
#	10833
#	15183
#	20433
#	23358
#	26208
#	35133
#	39108
#	51183
#	58458
#	68283
#	77058
#	80658
#	84933
#	93708
#	98208
#	106083
#	115833
#	123633
#	127630
#	132955
#	135955
#	139780
#	147280
#	150130
#	158680
#	164530
#	172555
#	176680
#	186355
#	192805
#	201580
#	206980
#	215455
#	226855
#	231730
#	236980
#	246730
#	253480
#	258655
#	269305
#	275455
#	279730
#	282880
#	293230
#	299905
#	304780
#	309280
#	326980
#
# Disc length: 4441 seconds
#
# Revision: 0
# Processed by: cddbd v1.5.1PL0 Copyright (c) Steve Scherf et al.
# Submitted via: CDex 1.51
#
DISCID=d7115732
DTITLE=Sonoton Authentic Series - SAS 038 - Authentic Balkans
DYEAR=1992
DGENRE=Contentum
TTITLE0=Serbia - Old Sabac Woman - Dance from Sabac
TTITLE1=Serbia - Old Sabac Woman - Violin and frula
TTITLE2=Serbia - Old Sabac Woman - Frula and accordion
TTITLE3=Serbia - Ruse Kose Girl - Love song,  ensemble
TTITLE4=Serbia - Ruse Kose Girl - Undercore
TTITLE5=Serbia - Ruse Kose Girl - Frula solo
TTITLE6=Serbia - Smederevo love - Pastoral romance
TTITLE7=Serbia - Smederevo love - Sad violin solo
TTITLE8=Serbia - Smederevo love - Scenic mood
TTITLE9=Serbia - Frula tune - Pastoral frula tune
TTITLE10=Serbia - Kolo Round - Oriental round dance
TTITLE11=Serbia - Hills of Rudnik - From the mountains
TTITLE12=Serbia - Hills of Rudnik - Violin and guitar
TTITLE13=Serbia - Hills of Rudnik - Frula solo
TTITLE14=Serbia - Rain in Novi Pazar - Rain dance,  ensemble
TTITLE15=Serbia - Rain in Novi Pazar - Frula solo
TTITLE16=Dalmatia - Pero's wine - Cheerful,  ensemble
TTITLE17=Dalmatia - Vilaja cottage - Romantic waltz
TTITLE18=Dalmatia - Vilaja cottage - Scenic
TTITLE19=Dalmatia - Vilaja cottage - Descriptive variation
TTITLE20=Dalmatia - Marica's smile - Love tune
TTITLE21=Dalmatia - Marica's smile - Violin and mandolines
TTITLE22=Dalmatia - Marica's smile - Mandoline solo
TTITLE23=Dalmatia - Tri Kola - Simple dance
TTITLE24=Dalmatia - Tri Kola - Tamburica and violins
TTITLE25=Dalmatia - Tamburica Dream - Romantic love theme
TTITLE26=Dalmatia - Zagorje people - Cheerful folkdance
TTITLE27=Dalmatia - Posavina Hearts - Moderate to,  ensemble
TTITLE28=Dalmatia - Posavina Hearts - Plaintive tamburica
TTITLE29=Romania - Ardelenia - Cheerful,  ensemble
TTITLE30=Romania - Ardelenia - Cheerful, lighter version
TTITLE31=Romania - Romanian Gipsy - Gipsy tune,  ensemble
TTITLE32=Romania - Romanian Gipsy - Accordion solo
TTITLE33=Romania - Romanian Gipsy - Violin and czimbalon
TTITLE34=Romania - Bega Bank - Romantic gipsy mood
TTITLE35=Romania - Bega Bank - Czimbalon solo
TTITLE36=Romania - Bega Bank - Violin and guitar
TTITLE37=Romania - Portata - Plaintive, sad
TTITLE38=Romania - Portata - Accordion and czimbalon
TTITLE39=Romania - Hora - Cheerful accordion
TTITLE40=Bulgaria-Macedonia - Oro - Cheerful dance
TTITLE41=Bulgaria-Macedonia - Oro - Monotonus
TTITLE42=Bulgaria-Macedonia - Oro - Monotonus-alternative version
TTITLE43=Bulgaria-Macedonia - Oro - Monotonus-another alternative version
TTITLE44=Bulgaria-Macedonia - Washerwomen - Romantic tune
TTITLE45=Bulgaria-Macedonia - Maro Markie - Cheerful ensemble
TTITLE46=Bulgaria-Macedonia - Maro Markie - Violin version
TTITLE47=Bulgaria-Macedonia - Maro Markie - Hectic mood
TTITLE48=Bulgaria-Macedonia - Struga Sunset - Scenic impression
TTITLE49=Struga Sunset - Violin version
EXTD=YEAR: 1992
EXTT0=
EXTT1=
EXTT2=
EXTT3=
EXTT4=
EXTT5=
EXTT6=
EXTT7=
EXTT8=
EXTT9=
EXTT10=
EXTT11=
EXTT12=
EXTT13=
EXTT14=
EXTT15=
EXTT16=
EXTT17=
EXTT18=
EXTT19=
EXTT20=
EXTT21=
EXTT22=
EXTT23=
EXTT24=
EXTT25=
EXTT26=
EXTT27=
EXTT28=
EXTT29=
EXTT30=
EXTT31=
EXTT32=
EXTT33=
EXTT34=
EXTT35=
EXTT36=
EXTT37=
EXTT38=
EXTT39=
EXTT40=
EXTT41=
EXTT42=
EXTT43=
EXTT44=
EXTT45=
EXTT46=
EXTT47=
EXTT48=
EXTT49=
PLAYORDER=
